<?xml version="1.0" encoding="utf-8"?>
<svg version="1.1" x="0px" y="0px" xmlns="http://www.w3.org/2000/svg" viewBox="0 0 612 612">
 <g>
  <title>andrea kereliuk</title>
  <circle id="svg_1" r="302.200012" cy="305.2" cx="304.3" stroke-miterlimit="10" stroke="#F1F0F2" fill="#444444"/>
  <path id="svg_2" d="m321.100006,210.800003c0,0 -126,-125 -238.899994,27.800003c0,0 -87.400002,184.199982 134.399994,213c0,0 78.100006,-11.200012 116.600006,-63l-12.100006,-177.800003z" stroke-miterlimit="10" stroke="#799DA5" fill="#183058"/>
  <path id="svg_3" d="m119.600006,298.600006c0,0 -0.099991,3.700012 10.699997,4.300018c10.800003,0.599976 29.600021,3 30.800003,3.299988s22.100006,3.100006 40.399994,29.200012c0,0 8.100006,-10.800018 51.400024,-3.5c0,0 21.699982,5.699982 33.299988,-0.300018c0,0 -1.399994,15.100006 -13.100006,27.5c-11.799988,12.399994 -22.899994,17.100006 -38.199982,18.200012c-15.300018,1.100006 -24,-1.300018 -30.200012,0.899994s-9.899994,10.799988 -9.899994,10.799988s-5,14.200012 -4.700012,24.800018c0.300018,10.600006 -0.100006,0.399994 -0.100006,0.399994s-0.199982,28.5 1.800018,34.5c0,0 -31.300018,2.200012 -39.000015,-11.899994c0,0 10.400009,-18 11.199997,-20.399994c0,0 10.300018,-19.800018 10.400024,-20.400024c0.199982,-0.699982 3.899994,-9.599976 3.699982,-11.5s0.399994,-8 -3.199982,-11.5s-13.200012,-11.299988 -13.200012,-11.299988s-15.600006,-10 -18.400009,-12.299988c0,0 -10.099991,-8.900024 -13.5,-14.300018s-4.399994,-6.799988 -5.599991,-9.299988c-1.100006,-2.399994 -3.5,-8 -4,-11.100006c0.099991,-3.400024 -1.500015,-11.400024 -0.600006,-16.100006z" stroke-miterlimit="10" stroke="#799DA5" fill="#799DA5"/>
  <path id="svg_4" d="m121.399994,302c0,0 4.399994,3.399994 9.599991,3.600006c0,0 12.800003,1.299988 17.400009,1.799988c4.599991,0.5 9,0.600006 13.399994,2.399994c4.399994,1.900024 11.399994,4.100006 18.700012,9.600006c7.299988,5.5 18.599976,15.5 18.599976,15.5s-7.299988,-11.299988 -16.199982,-16.600006c0,0 -6.100006,-3.899994 -11.300018,-6.899994c0,0 -5.399994,-3.299988 -12,-4.199982c-6.699982,-0.800018 -11.499985,-1.700012 -11.499985,-1.700012s-12.399994,-1.100006 -13.100006,-0.799988s-7.299988,-0.400024 -13.599991,-2.700012z" fill="#F2E5D3"/>
  <path id="svg_5" d="m204,336c0,0 7.399994,-3.200012 15.600006,-3.399994c0,0 6,-0.600006 8.699982,-0.5c2.800018,0.100006 10.800018,0.699982 10.800018,0.699982l8.799988,1c0,0 14.600006,3 20.100006,2.800018s8.799988,-0.399994 8.799988,-0.399994s5.700012,-1.100006 6,-1.100006l-6.299988,0.5c0,0 -6.399994,0.100006 -7,-0.100006c-0.700012,-0.200012 -7.5,-0.600006 -8.100006,-0.700012c-0.699982,-0.099976 -8.100006,-1.5 -8.100006,-1.5s-7.5,-1.799988 -11.099976,-2c-3.700012,-0.199982 -10.5,-0.5 -10.5,-0.5s-12.200012,-0.599976 -14,0.400024c-1.900024,0.699982 -11.400024,1.599976 -13.700012,4.799988z" fill="#F2E5D3"/>
  <path id="svg_6" d="m275.5,357.100006c0,0 -20.299988,15.100006 -39.5,15.899994c0,0 -13.600006,1.900024 -17,1.800018c-3.399994,-0.200012 -11.600006,-0.899994 -18.100006,3.799988c-6.5,4.700012 -9.899994,12.800018 -9.899994,12.800018s-5.399994,13.799988 -6,20.099976c0,0 -2.600006,17 -2.5,19.800018c0.100006,2.699982 0,17.399994 0,17.399994l10.100006,0c0,0 -1.200012,-8.5 -1.399994,-12c-0.200012,-3.5 -0.600006,-17.200012 -0.400024,-18.399994c0.100006,-1.200012 1.100006,-16.200012 2,-19.700012c0.900024,-3.399994 3.100006,-11 4.800018,-13.300018c1.699982,-2.299988 5.899994,-6.599976 7.799988,-7.099976c2,-0.600006 8.800018,-1.400024 9.200012,-0.900024c0.299988,0.5 13.699982,0.400024 14.100006,0.400024s11.799988,-0.700012 14.299988,-1.300018c2.600006,-0.5 6.399994,-0.799988 9.100006,-2.399994c2.799988,-1.700012 7.5,-3.100006 10.699982,-5.600006c3.300018,-2.399994 7.100006,-5.699982 7.200012,-5.799988c0.200012,0 5,-4.899994 5.5,-5.5z" stroke-miterlimit="10" stroke="#444444" fill="#444444"/>
  <line id="svg_7" y2="335.3" x2="200.8" y1="384.7" x1="178.4" fill="none"/>
  <path id="svg_8" d="m178.399994,384.700012c0,0 0.299988,-0.799988 0.799988,-2.200012c0.600006,-1.399994 1.300018,-3.299988 2.300018,-5.699982c1,-2.300018 2.099976,-5.100006 3.399994,-8s2.699982,-6.100006 4.100006,-9.100006c1.399994,-3.100006 2.799988,-6.200012 4.199982,-9c1.399994,-2.799988 2.700012,-5.600006 3.800018,-7.799988c1.099976,-2.300018 2.099976,-4.200012 2.799988,-5.5c0.700012,-1.400024 1.100006,-2.100006 1.100006,-2.100006s-0.300018,0.799988 -0.800018,2.199982c-0.599976,1.400024 -1.299988,3.300018 -2.299988,5.700012s-2.100006,5.100006 -3.399994,8s-2.700012,6.100006 -4.100006,9.100006c-1.399994,3.100006 -2.799988,6.199982 -4.200012,9c-1.399994,2.799988 -2.699982,5.600006 -3.799988,7.799988c-1.100006,2.300018 -2.100006,4.200012 -2.799988,5.5c-0.700012,1.399994 -1.100006,2.100006 -1.100006,2.100006z" fill="#444444"/>
  <line id="svg_9" y2="383.6" x2="196.1" y1="336" x1="201.3" fill="none"/>
  <path id="svg_10" d="m201.299988,336c0,0 0,0.799988 -0.100006,2.100006c-0.100006,1.299988 -0.100006,3.199982 -0.299988,5.399994c-0.100006,2.299988 -0.399994,4.899994 -0.600006,7.600006c-0.200012,2.799988 -0.600006,5.799988 -0.899994,8.699982c-0.300018,2.900024 -0.700012,6 -1,8.700012c-0.399994,2.700012 -0.700012,5.399994 -1.100006,7.600006c-0.299988,2.299988 -0.700012,4.100006 -0.899994,5.399994c-0.200012,1.299988 -0.399994,2.100006 -0.399994,2.100006s0,-0.800018 0.099976,-2.100006s0.100006,-3.200012 0.300018,-5.399994c0.100006,-2.300018 0.399994,-4.899994 0.600006,-7.600006c0.199982,-2.799988 0.599976,-5.799988 0.899994,-8.700012c0.299988,-2.899994 0.699982,-6 1,-8.699982c0.399994,-2.700012 0.699982,-5.399994 1.100006,-7.600006c0.299988,-2.299988 0.699982,-4.100006 0.899994,-5.399994c0.200012,-1.5 0.399994,-2.100006 0.399994,-2.100006z" fill="#444444"/>
  <path id="svg_11" d="m309.799988,147.899994l0,28.699997c-24.200012,-25.600006 -57.5,-38.5 -99.200012,-38.5c-44.599976,0 -83.999985,16 -117.199982,47.5c-33.300003,31.600006 -50.199997,72.300003 -50.199997,120.900009c0,44.399994 16.199997,83.299988 48.199997,115.799988c32,32.600006 73.300018,49.100006 122.600006,49.100006c39.699982,0 71.799988,-13.199982 95.599976,-39.299988l0,31.799988l42.400024,0l0,-316l-42.200012,0zm0,76.5l0,160.600006c-24.899994,29.899994 -56.399994,44.399994 -96.200012,44.399994c-37.099976,0 -68.099991,-12.399994 -91.899979,-36.799988c-23.900009,-24.399994 -36,-53.600006 -36,-86.800018c0,-36.5 12.599991,-66.899994 37.299988,-90.399994c24.800003,-23.599991 54.500015,-35.5 88.300003,-35.5c41.300018,0.100006 73.600006,14.600006 98.5,44.5z" fill="#799DA5"/>
  <polygon id="svg_12" points="508.0999755859375,473.79998779296875 405.29998779296875,375.1000061035156 405.29998779296875,463.8999938964844 365,463.8999938964844 365,147.6999969482422 405.29998779296875,147.6999969482422 405.29998779296875,336.8999938964844 507.70001220703125,238.5 536.4000244140625,265.8999938964844 442.5999755859375,356 536.7000122070312,446.3999938964844 " fill="#799DA5"/>
 </g>
</svg>